
<svg xmlns="http://www.w3.org/2000/svg" xml:space="preserve" width="0.444449in" height="0.432402in" version="1.1" style="shape-rendering:geometricPrecision; text-rendering:geometricPrecision; image-rendering:optimizeQuality; fill-rule:evenodd; clip-rule:evenodd"
viewBox="0 0 2.97 2.89"
 xmlns:xlink="http://www.w3.org/1999/xlink"
 xmlns:xodm="http://www.corel.com/coreldraw/odm/2003">

 <g>
  <metadata id="CorelCorpID_0Corel-Layer"/>
  <path class="fil0" d="M1 2.89l0.01 0c0.06,-0.06 0.08,-0.05 0.08,-0.16 0,-0.08 -0,-0.16 -0,-0.24 -0.21,0.02 -0.35,0.01 -0.44,-0.12 -0.06,-0.09 -0.07,-0.18 -0.18,-0.26 -0.02,-0.01 -0.08,-0.05 -0.07,-0.07 0.01,-0.02 0.14,-0.05 0.23,0.07 0.04,0.05 0.11,0.15 0.17,0.18 0.08,0.04 0.21,0.03 0.29,-0 0.05,-0.02 0.01,-0.03 0.06,-0.11 0.04,-0.06 0.06,-0.07 0.08,-0.09 -0.19,-0.01 -0.37,-0.07 -0.5,-0.16 -0.12,-0.08 -0.21,-0.22 -0.24,-0.42 -0.04,-0.24 -0.02,-0.42 0.11,-0.59 0.01,-0.01 0.01,-0.02 0.02,-0.02 0.01,-0.01 0.01,-0.01 0.01,-0.03 -0.01,-0.05 -0.02,-0.09 -0.02,-0.14 -0.01,-0.1 0.01,-0.2 0.05,-0.28 0.15,-0.01 0.33,0.1 0.42,0.16 0.02,0.02 0.04,-0 0.11,-0.02 0.04,-0.01 0.09,-0.01 0.13,-0.02 0.13,-0.01 0.29,-0.01 0.42,0.01 0.18,0.02 0.07,0.04 0.21,-0.03 0.07,-0.04 0.26,-0.14 0.33,-0.11 0.02,0.01 0.04,0.08 0.04,0.1 0.02,0.09 0.01,0.19 -0,0.27 -0,0.03 0,0.03 0.02,0.05 0.01,0.02 0.02,0.03 0.03,0.04 0.04,0.06 0.08,0.11 0.1,0.19 0.05,0.15 0.04,0.36 0,0.52 -0.04,0.17 -0.12,0.27 -0.24,0.35 -0.12,0.07 -0.29,0.11 -0.46,0.13l0 0c0,0 0,0 0,0l0.03 0.02c0.02,0.01 0.02,0.02 0.03,0.03 0.07,0.09 0.07,0.19 0.07,0.32 -0,0.09 0,0.17 -0,0.26 -0,0.07 -0.01,0.11 0.04,0.16 0.01,0.01 0.03,0.02 0.03,0.03l0.01 0c0.02,-0.01 0.09,-0.04 0.12,-0.05 0.04,-0.02 0.07,-0.04 0.11,-0.05 0.21,-0.11 0.38,-0.28 0.52,-0.47 0.25,-0.35 0.33,-0.86 0.18,-1.31 -0.06,-0.18 -0.15,-0.33 -0.27,-0.47 -0.05,-0.06 -0.11,-0.12 -0.17,-0.17 -0.05,-0.04 -0.09,-0.07 -0.14,-0.11 -0.06,-0.05 -0.13,-0.08 -0.21,-0.12 -0.27,-0.13 -0.5,-0.12 -0.53,-0.14l-0.19 0c-0.02,0.01 -0.11,0.01 -0.15,0.02 -0.25,0.04 -0.49,0.15 -0.68,0.3 -0.29,0.23 -0.49,0.56 -0.54,0.94 -0.07,0.47 0.08,0.88 0.34,1.19 0.06,0.07 0.14,0.14 0.21,0.2 0.06,0.05 0.13,0.09 0.2,0.13 0.05,0.03 0.14,0.07 0.2,0.09l0.03 0.01z"/>
 </g>
</svg>
