<?xml version="1.0" encoding="UTF-8"?>
<!DOCTYPE svg PUBLIC "-//W3C//DTD SVG 1.1//EN" "http://www.w3.org/Graphics/SVG/1.1/DTD/svg11.dtd">
<!-- Creator: CorelDRAW 2020 (64-Bit) -->
<svg xmlns="http://www.w3.org/2000/svg" xml:space="preserve" width="0.444449in" height="0.444228in" version="1.1" style="shape-rendering:geometricPrecision; text-rendering:geometricPrecision; image-rendering:optimizeQuality; fill-rule:evenodd; clip-rule:evenodd"
viewBox="0 0 7.08 7.08"
 xmlns:xlink="http://www.w3.org/1999/xlink"
 xmlns:xodm="http://www.corel.com/coreldraw/odm/2003">
 <defs>
  <style type="text/css">
   <![CDATA[
    .fil0 {fill:blue}
   ]]>
  </style>
 </defs>
 <g id="Capa_x0020_1">
  <metadata id="CorelCorpID_0Corel-Layer"/>
  <path class="fil0" d="M3.43 0.01c-0.34,0.03 -0.43,0.02 -0.77,0.11 -0.23,0.06 -0.45,0.14 -0.65,0.24 -0.29,0.15 -0.57,0.32 -0.8,0.53 -0.72,0.65 -1.24,1.57 -1.21,2.78 0.03,1.16 0.66,2.23 1.59,2.84 0.61,0.4 1.3,0.61 2.07,0.58 2.26,-0.07 3.87,-2.23 3.31,-4.42 -0.34,-1.31 -1.39,-2.31 -2.73,-2.58 -0.22,-0.05 -0.56,-0.09 -0.81,-0.07zm0.48 3.08c-0.01,0.04 -0,0.02 -0.02,0.03 -0.02,-0.04 -0.01,-0.27 -0.01,-0.33l-0.81 -0c0.02,0.4 0.01,0.83 0.01,1.22 -0,0.2 -0,0.41 -0,0.61 -0,0.19 -0.01,0.42 -0,0.61l0.8 0c0.01,-0.09 -0,-1.14 0,-1.38 0,-0.01 -0,-0.03 0,-0.04 0,-0.01 0,-0.02 0,-0.02 0.01,-0.03 -0.01,0 0.01,-0.02 -0.02,-0.12 0.15,-0.37 0.38,-0.39 0.58,-0.05 0.47,0.65 0.47,1.09 0,0.13 -0.02,0.69 0.01,0.78l0.81 0c0.01,-0.08 0,-0.97 0,-1.13 0,-0.36 0.01,-0.69 -0.16,-0.97 -0.35,-0.58 -1.22,-0.52 -1.49,-0.04zm-1.76 -1.49c-0.27,0.04 -0.42,0.22 -0.38,0.49 0.08,0.52 1,0.46 0.91,-0.15 -0.03,-0.23 -0.26,-0.38 -0.52,-0.34zm0.47 3.62l-0 -2.44 -0.8 -0c0.01,0.4 -0,0.83 -0,1.23 0,0.04 -0.01,1.15 0.01,1.18l0.02 0.02 0.78 0z"/>
 </g>
</svg>
